<svg xmlns="http://www.w3.org/2000/svg" viewBox="0 0 128 128" fill="none">
  <defs>
    <linearGradient id="g" x1="16" y1="12" x2="112" y2="116" gradientUnits="userSpaceOnUse">
      <stop stop-color="#60a5fa" />
      <stop offset="0.55" stop-color="#22c55e" />
      <stop offset="1" stop-color="#f59e0b" />
    </linearGradient>
    <filter id="shadow" x="0" y="0" width="128" height="128" filterUnits="userSpaceOnUse">
      <feDropShadow dx="0" dy="8" stdDeviation="8" flood-color="#0f172a" flood-opacity="0.35" />
    </filter>
  </defs>
  <rect x="10" y="10" width="108" height="108" rx="28" fill="#0f172a" />
  <circle cx="64" cy="64" r="42" fill="url(#g)" filter="url(#shadow)" />
  <path d="M46 52c0-4.418 3.582-8 8-8h20c4.418 0 8 3.582 8 8v24c0 4.418-3.582 8-8 8H54c-4.418 0-8-3.582-8-8V52Z" stroke="#fff" stroke-width="8" stroke-linejoin="round" />
  <path d="M50 76h28M50 64h18" stroke="#fff" stroke-width="8" stroke-linecap="round" />
  <path d="M83 37l4 8 8 4-8 4-4 8-4-8-8-4 8-4 4-8Z" fill="#fff" opacity="0.95" />
</svg>
